<?xml version="1.0" standalone="no"?><!DOCTYPE svg PUBLIC "-//W3C//DTD SVG 1.1//EN" "http://www.w3.org/Graphics/SVG/1.1/DTD/svg11.dtd"><svg t="1483533124339" class="icon" style="" viewBox="0 0 1024 1024" version="1.1" xmlns="http://www.w3.org/2000/svg" p-id="1972" xmlns:xlink="http://www.w3.org/1999/xlink" width="32" height="32"><defs><style type="text/css"></style></defs><path d="M508.928 64.96C262.464 64.96 61.824 265.536 61.824 512c0 246.528 200.576 447.04 447.04 447.04 246.4 0 446.912-200.512 446.912-447.04C955.968 265.536 755.328 64.96 508.928 64.96zM508.928 916.224c-222.912 0-404.288-181.376-404.288-404.288 0-222.848 181.376-404.224 404.288-404.224 223.04 0 404.16 181.376 404.16 404.224C913.088 734.848 731.84 916.224 508.928 916.224z" p-id="1973" fill="#ffffff"></path><path d="M613.76 506.176 354.688 349.632C353.024 348.608 350.656 348.48 348.736 349.504 346.752 350.528 345.664 352.512 345.664 354.432l0 314.944c0 2.048 1.088 4.032 3.072 5.12 1.856 1.024 4.224 0.832 5.952-0.32L613.76 517.696l0 157.504 58.24 0 0-326.4L613.76 348.8 613.76 506.176z" p-id="1974" fill="#ffffff"></path></svg>