<?xml version="1.0" standalone="no"?><!DOCTYPE svg PUBLIC "-//W3C//DTD SVG 1.1//EN" "http://www.w3.org/Graphics/SVG/1.1/DTD/svg11.dtd"><svg t="1483532937272" class="icon" style="" viewBox="0 0 1024 1024" version="1.1" xmlns="http://www.w3.org/2000/svg" p-id="950" xmlns:xlink="http://www.w3.org/1999/xlink" width="128" height="128"><defs><style type="text/css"></style></defs><path d="M515.072 959.040c246.463 0 447.104-200.576 447.104-447.040 0-246.529-200.576-447.040-447.040-447.040-246.4 0-446.912 200.512-446.912 447.041-0.192 246.464 200.448 447.040 446.848 447.040zM515.072 107.776c222.913 0 404.288 181.376 404.288 404.288 0 222.848-181.376 404.224-404.288 404.224-223.040 0-404.16-181.376-404.16-404.224 0-222.913 181.248-404.288 404.16-404.288z" p-id="951" fill="#ffffff"></path><path d="M410.24 517.824l259.072 156.544c1.665 1.024 4.032 1.153 5.952 0.128 1.984-1.024 3.072-3.008 3.072-4.928v-314.944c0-2.048-1.088-4.032-3.072-5.12-1.855-1.024-4.224-0.832-5.952 0.32l-259.072 156.481v-157.504h-58.24v326.4h58.24v-157.377z" p-id="952" fill="#ffffff"></path></svg>