<?xml version="1.0" standalone="no"?><!DOCTYPE svg PUBLIC "-//W3C//DTD SVG 1.1//EN" "http://www.w3.org/Graphics/SVG/1.1/DTD/svg11.dtd"><svg t="1482506485558" class="icon" style="" viewBox="0 0 1024 1024" version="1.1" xmlns="http://www.w3.org/2000/svg" p-id="1118" xmlns:xlink="http://www.w3.org/1999/xlink" width="128" height="128"><defs><style type="text/css"></style></defs><path d="M512 921.6c-224 0-409.6-185.6-409.6-409.6 0-224 185.6-409.6 409.6-409.6 224 0 409.6 185.6 409.6 409.6 0 224-185.6 409.6-409.6 409.6z m0-768C313.6 153.6 153.6 313.6 153.6 512c0 198.4 160 358.4 358.4 358.4 198.4 0 358.4-160 358.4-358.4 0-198.4-160-358.4-358.4-358.4z m-96 563.2h-12.8c-6.4-6.4-12.8-12.8-12.8-25.6V352c0-12.8 12.8-25.6 25.6-25.6s25.6 12.8 25.6 25.6v294.4l185.6-121.6-140.8-108.8c-12.8-6.4-12.8-25.6-6.4-38.4 6.4-12.8 25.6-12.8 38.4-6.4l172.8 128c6.4 6.4 12.8 12.8 12.8 19.2 0 6.4-6.4 12.8-12.8 19.2l-256 172.8c-6.4 6.4-12.8 6.4-19.2 6.4z" fill="#2c2c2c" p-id="1119"></path></svg>