<?xml version="1.0" standalone="no"?><!DOCTYPE svg PUBLIC "-//W3C//DTD SVG 1.1//EN" "http://www.w3.org/Graphics/SVG/1.1/DTD/svg11.dtd"><svg t="1482506496930" class="icon" style="" viewBox="0 0 1024 1024" version="1.1" xmlns="http://www.w3.org/2000/svg" p-id="1399" xmlns:xlink="http://www.w3.org/1999/xlink" width="128" height="128"><defs><style type="text/css"></style></defs><path d="M512 921.6c-224 0-409.6-185.6-409.6-409.6 0-224 185.6-409.6 409.6-409.6 224 0 409.6 185.6 409.6 409.6 0 224-185.6 409.6-409.6 409.6z m0-768C313.6 153.6 153.6 313.6 153.6 512c0 198.4 160 358.4 358.4 358.4 198.4 0 358.4-160 358.4-358.4 0-198.4-160-358.4-358.4-358.4z m-83.2 512c-12.8 0-25.6-12.8-25.6-25.6V384c0-12.8 12.8-25.6 25.6-25.6s25.6 12.8 25.6 25.6v256c0 12.8-6.4 25.6-25.6 25.6z m166.4 0c-12.8 0-25.6-12.8-25.6-25.6V384c0-12.8 6.4-25.6 25.6-25.6 19.2 0 25.6 12.8 25.6 25.6v256c0 12.8-12.8 25.6-25.6 25.6z" fill="#2c2c2c" p-id="1400"></path></svg>