<?xml version="1.0" standalone="no"?><!DOCTYPE svg PUBLIC "-//W3C//DTD SVG 1.1//EN" "http://www.w3.org/Graphics/SVG/1.1/DTD/svg11.dtd"><svg t="1483682493888" class="icon" style="" viewBox="0 0 1024 1024" version="1.1" xmlns="http://www.w3.org/2000/svg" p-id="4721" xmlns:xlink="http://www.w3.org/1999/xlink" width="32" height="32"><defs><style type="text/css"></style></defs><path d="M952.46578 517.564739c-4.825912-23.532973-12.032034-46.697555-21.407566-68.841901-9.190313-21.695115-20.578688-42.637076-33.868365-62.289672-13.147438-19.431561-28.236088-37.676088-44.825928-54.228065-16.572444-16.551978-34.840506-31.594579-54.326303-44.759413-19.606547-13.225209-40.593534-24.573675-62.400189-33.799804-22.194488-9.369392-45.38977-16.551978-68.944232-21.369703-38.065967-7.768941-77.854159-9.399067-116.647697-4.946662-1.274016-3.421936-2.610454-6.818289-4.033873-10.175757-6.288217-14.817474-14.056134-29.104875-23.080671-42.453904-8.965186-13.245675-19.250436-25.673729-30.55797-36.959773-11.285021-11.267625-23.747867-21.532409-37.047778-30.513968-13.402241-9.039887-27.714202-16.795525-42.546002-23.062252-15.090697-6.367011-30.916127-11.265578-47.037293-14.57188-32.958646-6.735401-67.890226-6.735401-100.890828 0-16.141632 3.306302-31.965016 8.226359-47.02399 14.57188-14.813381 6.246261-29.125341 14.022365-42.548048 23.062252-13.297864 8.961092-25.762757 19.224854-37.036521 30.493501-11.325953 11.307533-21.61325 23.734564-30.576389 36.980239-9.025561 13.350053-16.795525 27.636431-23.093974 42.475394-6.389524 15.10093-11.305487 30.92022-14.588253 46.943149-3.38305 16.427134-5.090948 33.366945-5.090948 50.368154 0 16.960277 1.706875 33.9226 5.079692 50.351781 3.294023 16.062837 8.208962 31.880081 14.59951 46.943149 6.288217 14.836917 14.056134 29.123294 23.093974 42.491767 9.712199 14.326287 29.214369 18.144242 43.600007 8.429996 14.374382-9.695826 18.155499-29.185716 8.456602-43.534516-6.78145-9.999748-12.595876-20.693298-17.298991-31.819706-4.783956-11.263531-8.452509-23.062252-10.917654-35.084053-2.52552-12.325723-3.801583-25.019837-3.801583-37.778418 0-12.774955 1.276063-25.469068 3.811816-37.778418 2.454912-11.998265 6.123464-23.818475 10.907421-35.104519 4.703115-11.100826 10.528797-21.796422 17.298991-31.798217 6.716982-9.939373 14.422478-19.266809 22.929222-27.734668 8.463766-8.471952 17.807574-16.167215 27.773554-22.881127 10.070356-6.79373 20.782326-12.591783 31.865755-17.264199 11.265578-4.757351 23.093974-8.429996 35.178197-10.899234 24.717961-5.061272 50.961672-5.061272 75.658144 0 12.062733 2.469238 23.909549 6.123464 35.186384 10.899234 11.092639 4.672416 21.806655 10.488889 31.844266 17.245779 9.979282 6.733355 19.323091 14.428617 27.805276 22.921036 8.486278 8.446369 16.195867 17.773805 22.912849 27.713178 6.470365 9.56382 12.06785 19.766183 16.652262 30.328749-12.82305 3.823072-25.457812 8.325619-37.784558 13.533224-21.804608 9.204639-42.783409 20.572548-62.378699 33.797757-19.454074 13.124925-37.732369 28.187993-54.314023 44.73997-16.60212 16.570397-31.68156 34.817993-44.817742 54.228065-13.289678 19.631106-24.690332 40.59558-33.868365 62.269205-9.365298 22.104437-16.570397 45.26902-21.417799 68.862367-4.946662 24.166399-7.451716 49.002041-7.451716 73.842799 0 24.838711 2.505054 49.676399 7.451716 73.840752 4.847401 23.593348 12.0525 46.759977 21.417799 68.862367 9.210779 21.715581 20.60734 42.676985 33.868365 62.269205 13.135158 19.411095 28.215622 37.657668 44.817742 54.230112 16.610306 16.593933 34.890648 31.634488 54.314023 44.717458 19.546172 13.20372 40.543392 24.595164 62.412468 33.838689 22.192442 9.369392 45.397956 16.551978 68.983117 21.369703 24.215518 4.938476 49.098231 7.42818 73.951269 7.42818 24.850991 0 49.734728-2.489704 73.981968-7.42818 23.553439-4.817726 46.749744-12.000312 68.972884-21.388123 21.806655-9.206686 42.805922-20.595061 62.370513-33.799804 19.443841-13.104459 37.722136-28.16548 54.326303-44.737924 16.58984-16.551978 31.677467-34.798551 44.836161-54.248531 13.260002-19.59222 24.647353-40.535205 33.848922-62.249763 9.383718-22.164812 16.58984-45.329395 21.405519-68.862367 4.956895-24.14491 7.474228-48.981574 7.474228-73.840752C959.929776 566.54836 957.412442 541.710672 952.46578 517.564739zM890.926192 652.677996c-3.988848 19.491936-9.94756 38.656415-17.717524 56.982806-7.626701 18.000979-17.072841 35.371602-28.05087 51.615565-10.9197 16.125259-23.430642 31.268144-37.201274 45.005007-13.780865 13.758352-28.942169 26.225291-45.083801 37.124526-16.223496 10.94119-33.622772 20.367887-51.665707 28.002774-18.390859 7.755638-37.609573 13.71435-57.095369 17.697057-40.177048 8.16189-82.641185 8.16189-122.776278 0-19.506263-3.982708-38.72293-9.94142-57.095369-17.676591-18.095124-7.655354-35.484166-17.083074-51.706639-28.042683-16.131399-10.880815-31.292704-23.347754-45.073568-37.106106-13.770632-13.756305-26.28362-28.879748-37.19104-45.005007-10.989285-16.223496-20.424168-33.593096-28.061103-51.615565-7.749498-18.286482-13.70821-37.45096-17.715477-56.982806-4.109598-20.023032-6.183839-40.636512-6.183839-61.269435 0-20.634969 2.073218-41.24845 6.173606-61.269435 4.018523-19.533892 9.977235-38.698371 17.73492-57.005318 7.607258-17.959024 17.043165-35.329646 28.052916-51.594075 10.907421-16.125259 23.420409-31.246655 37.19104-45.00296 13.770632-13.736862 28.942169-26.227338 45.073568-37.126572 16.23373-10.939143 33.630958-20.367887 51.67594-28.000728 9.223059-3.886517 18.649755-7.321756 28.216645-10.283204 0.313132 4.441149 0.479931 8.898671 0.479931 13.363356 0 12.716626-1.278109 25.432229-3.803629 37.758975-2.473331 12.040221-6.152117 23.859407-10.937097 35.123962-4.694929 11.105942-10.510378 21.798469-17.286712 31.798217-6.677073 9.878998-14.394848 19.204387-22.931269 27.738761-8.463766 8.467859-17.807574 16.163121-27.76332 22.87908-10.060123 6.77531-20.774139 12.591783-31.867802 17.264199-15.977903 6.757914-23.439852 25.146727-16.682961 41.105187 5.071506 11.939937 16.695241 19.125593 28.931936 19.125593 4.089132 0 8.228405-0.795109 12.227486-2.469238 14.821567-6.266727 29.133527-14.022365 42.546002-23.064298 13.289678-8.979512 25.752524-19.246343 37.036521-30.511921 11.357675-11.347442 21.642926-23.796986 30.55797-36.96182 9.035794-13.368472 16.803711-27.655873 23.080671-42.4713 6.389524-15.063067 11.307533-30.859845 14.619976-46.985104 3.372817-16.489556 5.081739-33.409924 5.081739-50.330292 0-8.56405-0.440022-17.129122-1.309832-25.635867 9.394974-0.865717 18.848277-1.324158 28.307719-1.324158 20.669762 0 41.320081 2.082428 61.367673 6.183839 19.516496 3.980661 38.736233 9.94142 57.095369 17.676591 18.053168 7.632841 35.452443 17.062608 51.696406 28.000728 16.151865 10.9197 31.321356 23.410176 45.083801 37.147038 13.770632 13.734816 26.281573 28.877701 37.188994 44.981471 11.011798 16.285918 20.447704 33.655518 28.063149 51.636031 7.769964 18.328437 13.728676 37.492916 17.72571 56.984852 4.099365 20.020986 6.185886 40.634466 6.185886 61.269435C897.120264 612.040461 895.033743 632.654964 890.926192 652.677996z" p-id="4722" fill="#2c2c2c"></path></svg>