<?xml version="1.0" standalone="no"?><!DOCTYPE svg PUBLIC "-//W3C//DTD SVG 1.1//EN" "http://www.w3.org/Graphics/SVG/1.1/DTD/svg11.dtd"><svg t="1482508109622" class="icon" style="" viewBox="0 0 1024 1024" version="1.1" xmlns="http://www.w3.org/2000/svg" p-id="10003" xmlns:xlink="http://www.w3.org/1999/xlink" width="128" height="128"><defs><style type="text/css"></style></defs><path d="M527.33629 942.489568c-247.203148 0-447.592085-200.38996-447.592085-447.600271 0-247.202125 200.38996-447.64018 447.592085-447.64018 247.211335 0 447.64018 200.438055 447.64018 447.64018C974.977493 742.099608 774.547625 942.489568 527.33629 942.489568M527.33629 103.21885c-216.293161 0-391.630538 175.3691-391.630538 391.669424 0 216.301348 175.337377 391.638725 391.630538 391.638725 216.309534 0 391.678634-175.337377 391.678634-391.638725C919.015947 278.588973 743.645824 103.21885 527.33629 103.21885M559.848775 406.423453l41.501206-41.469484c10.791787 11.063987 19.644409 20.101827 24.876574 25.445532 53.366442 54.591339 55.457056 139.091872 0 195.814758-12.594853 12.858866-34.450626 35.291784-59.023278 60.433394 33.80185 33.80185 67.683519 67.667146 86.030375 86.022189 6.977925 6.945179 9.036817 18.96391 0.183172 27.768437-5.183046 5.231141-11.063987 11.103896-16.087397 16.143679-6.569626 6.52153-17.296945 6.785543-25.637913-1.561565l-85.990466-85.990466-41.476647-41.469484c-10.896164-10.911514-21.167089-21.126156-30.243815-30.212092l-10.567683-10.56666c-5.303796-5.303796-10.150174-10.18292-13.964036-14.003945-56.770981-56.723909-54.624085-141.223419 0-195.815781 10.343579-10.343579 33.961486-33.9533 61.265342-61.265342-32.960693-33.722032-65.840544-67.338664-83.58672-85.49314-8.275477-8.468882-7.361665-19.796882 1.105171-28.458145 4.551666-4.65502 9.54233-9.766434 13.96506-14.268982 8.5487-8.732895 17.441231-7.93267 25.341155 0.151449 17.61724 18.011212 51.034327 52.228525 84.650959 86.606497 32.111349-32.134885 63.172785-63.179948 80.029708-80.077803 8.092305-8.083096 17.201777-8.852622 25.941835-0.119727 4.494361 4.502547 9.613962 9.613962 14.261818 14.268982 8.676613 8.661264 9.613962 19.990287 1.14508 28.458145-7.234775 7.251148-17.049305 17.089214-28.257577 28.305673l-0.048095-0.031722-93.072769 93.079932c-6.721075 6.713912-13.170974 13.195533-19.235087 19.260669l-1.899256 1.914606c-18.698874 18.723434-33.465183 33.44881-39.641859 39.633672-33.265638 33.265638-33.345456 78.587869 0 111.884207 7.515161 7.515161 28.617781 28.617781 54.287417 54.327326 27.961842-28.609595 51.53984-52.756551 59.512419-60.889789 32.543184-33.304524 32.463366-78.619592 0-111.883183C580.750827 427.782923 571.626006 418.473907 559.848775 406.423453M456.536804 675.867138l41.501206 41.469484c-20.406772 20.87033-38.448684 39.368636-49.970088 51.114145-8.163937 8.364505-18.658965 8.092305-25.059745 1.570775-4.919033-5.040806-10.647501-10.912537-15.751752-16.144702-8.636704-8.81169-6.617721-20.790512 0.176009-27.768437C418.921091 714.362894 436.668291 696.240141 456.536804 675.867138" p-id="10004"></path></svg>