<?xml version="1.0" standalone="no"?><!DOCTYPE svg PUBLIC "-//W3C//DTD SVG 1.1//EN" "http://www.w3.org/Graphics/SVG/1.1/DTD/svg11.dtd"><svg t="1483533594606" class="icon" style="" viewBox="0 0 1024 1024" version="1.1" xmlns="http://www.w3.org/2000/svg" p-id="3274" xmlns:xlink="http://www.w3.org/1999/xlink" width="32" height="32"><defs><style type="text/css"></style></defs><path d="M164.44112 711.504071c-27.350258 0-51.489-24.127905-51.489-51.485388l0-6.430255L112.95212 351.08107l0-6.43748c0-27.350258 24.138743-51.492613 51.489-51.492613l117.467749 0 225.26844-196.303394c11.260171-8.045043 22.520341-11.263783 32.180174-9.652607 19.312439 1.607564 32.180174 14.482523 37.006477 35.398913 0 0 0 125.501954 0 376.516701 0 251.018359 0 376.527538 0 376.527538-4.826304 20.91639-17.694038 33.79135-37.006477 35.391688-9.659832 1.607564-20.920003-1.600339-32.180174-9.648995 0 0-17.701263-14.486136-54.714965-45.062358l-109.419093-91.710605-61.137995-53.107401L164.44112 711.500459zM655.203217 589.217244c37.013702-19.308827 56.311691-49.877824 56.311691-90.106653 0-40.225217-19.297989-70.794214-56.311691-90.106653-28.957821-14.475298-6.433867-61.137995 24.138743-46.662697 109.411868 51.489 109.411868 222.06415 0 273.545925-4.826304 1.607564-8.045043 1.607564-12.871347 1.607564-9.652607 0-17.701263-4.822691-22.527566-14.482523C637.501954 610.144472 642.335483 595.661949 655.203217 589.217244L655.203217 589.217244zM619.804304 795.18047c-1.607564-14.475298 6.441092-28.961434 20.920003-30.568997 62.752783-12.871347 115.845735-43.447569 156.078177-93.332618 41.840006-49.877824 62.752783-107.811529 62.752783-172.168264 0-64.360347-20.912778-120.675651-62.752783-170.553475-40.232442-49.885049-93.325393-82.06161-156.078177-94.93657-35.398913-4.829916-19.305214-59.534044 9.652607-49.877824 75.631355 14.478911 136.765738 51.489 186.650787 111.019431 49.885049 59.537656 74.020179 127.116743 74.020179 204.348437 0 77.242532-24.138743 146.42557-74.020179 205.970451-49.885049 59.530431-111.019431 94.92212-186.650787 109.408255-1.607564 1.614789-3.21874 1.614789-4.826304 1.614789C631.0717 816.104085 623.023044 809.662993 619.804304 795.18047z" p-id="3275" fill="#ffffff"></path></svg>